<?xml version="1.0" standalone="no"?>
<!DOCTYPE svg PUBLIC "-//W3C//DTD SVG 20010904//EN"
 "http://www.w3.org/TR/2001/REC-SVG-20010904/DTD/svg10.dtd">
<svg version="1.0" xmlns="http://www.w3.org/2000/svg"
 width="1500.000000pt" height="1500.000000pt" viewBox="0 0 1500.000000 1500.000000"
 preserveAspectRatio="xMidYMid meet">
<metadata>
Created by potrace 1.14, written by Peter Selinger 2001-2017
</metadata>
<g transform="translate(0.000000,1500.000000) scale(0.100000,-0.100000)"
fill="#000000" stroke="none">
<path d="M2753 14661 c-96 -33 -170 -110 -198 -206 -13 -44 -15 -758 -13
-5845 l3 -5795 27 -50 c51 -96 137 -156 243 -170 42 -6 377 59 2065 395 1108
221 2025 404 2038 407 l22 5 0 2914 0 2914 -1235 0 -1235 0 0 520 0 520 1235
0 1235 0 2 1252 3 1252 595 146 595 146 3 337 2 337 -22 5 c-100 23 -5242 935
-5273 935 -22 -1 -63 -9 -92 -19z"/>
<path d="M12195 14054 c-11 -3 -900 -222 -1975 -485 -1075 -264 -1983 -487
-2017 -496 l-63 -15 0 -1394 0 -1394 1235 0 1235 0 0 -520 0 -520 -1235 0
-1235 0 0 -2800 c0 -1540 -3 -2800 -7 -2800 -5 -1 -271 -54 -593 -118 l-585
-118 -3 -847 c-1 -466 0 -847 2 -847 2 0 1175 -302 2607 -672 2471 -637 2609
-671 2694 -672 103 -1 144 15 206 81 49 50 66 87 78 164 15 89 15 13109 1
13198 -18 110 -68 184 -153 225 -51 26 -151 41 -192 30z"/>
</g>
</svg>
